<svg width="1024" height="512" xmlns="http://www.w3.org/2000/svg" fill="#ffffff" xml:space="preserve" version="1.1">
 <g id="Layer_1">
  <title>Layer 1</title>
  <g>
   <g stroke-width="0" id="svg_4"/>
   <g stroke-linejoin="round" stroke-linecap="round" id="svg_3"/>
   <g id="svg_2">
    <g>
     <path fill="#ffffff" d="m258.00262,265.308c73.252,0 132.644,-59.391 132.644,-132.654c0,-73.242 -59.392,-132.654 -132.644,-132.654c-73.262,0 -132.643,59.412 -132.643,132.654c0,73.263 59.381,132.654 132.643,132.654z" class="st0"/>
     <path fill="#ffffff" d="m427.87662,393.104c-5.922,-35.474 -36,-84.509 -57.552,-107.465c-5.829,-6.212 -15.948,-3.628 -19.504,-1.427c-27.04,16.672 -58.782,26.399 -92.819,26.399c-34.036,0 -65.778,-9.727 -92.818,-26.399c-3.555,-2.201 -13.675,-4.785 -19.505,1.427c-21.55,22.956 -51.628,71.991 -57.551,107.465c-14.552,87.34 78.752,118.896 169.875,118.896c91.123,0 184.427,-31.556 169.874,-118.896z" class="st0"/>
    </g>
   </g>
  </g>
  <g>
   <g stroke-width="0" id="svg_7"/>
   <g stroke-linejoin="round" stroke-linecap="round" id="svg_6"/>
   <g id="svg_5">
    <path d="m660.99765,186.47488l238,0c21.4,0 32.1,25.9 17,41l-119,119c-9.4,9.4 -24.6,9.4 -33.9,0l-119.1,-119c-15.1,-15.1 -4.4,-41 17,-41z"/>
   </g>
  </g>
 </g>

</svg>